<?xml version="1.0" encoding="UTF-8"?>
<svg width="184px" height="38px" viewBox="0 0 184 38" version="1.1" xmlns="http://www.w3.org/2000/svg" xmlns:xlink="http://www.w3.org/1999/xlink">
    <title>EFDEB39C-8139-4F36-AEB3-FDCFC13454C7</title>
    <defs>
        <polygon id="path-1" points="0 0 28.854671 0 28.854671 37.1665703 0 37.1665703"></polygon>
    </defs>
    <g id="Page-1" stroke="none" stroke-width="1" fill="none" fill-rule="evenodd">
        <g id="cooming-soon" transform="translate(-628.000000, -413.000000)">
            <g id="logo" transform="translate(628.203216, 413.000000)">
                <path d="M174.632396,15.6897515 C173.855775,15.1508369 172.749198,14.8813796 171.310519,14.8813796 C169.496403,14.8813796 168.197172,15.1349612 167.412399,15.6412663 C166.88936,16.0012579 166.628055,16.466372 166.628055,17.0383252 C166.628055,17.5296128 166.856751,17.9458127 167.315,18.2890704 C167.935867,18.7464613 170.08037,19.3917858 173.750224,20.225902 C177.418361,21.05916 179.981209,22.0807807 181.435334,23.2907641 C182.873584,24.515765 183.593567,26.2239011 183.593567,28.4143143 C183.593567,30.8008134 182.596403,32.8513491 180.602505,34.5676376 C178.607749,36.2839261 175.657878,37.1420703 171.751606,37.1420703 C168.205325,37.1420703 165.398335,36.4229454 163.330636,34.9842666 C161.262509,33.5464459 159.910931,31.5933096 159.272901,29.1252868 L166.186111,28.0701985 C166.480884,29.4110488 167.077723,30.429237 167.9762,31.1230466 C168.875106,31.8181434 170.134004,32.1648337 171.751606,32.1648337 C173.533542,32.1648337 174.873105,31.8378807 175.77287,31.184833 C176.377432,30.7274421 176.679499,30.113869 176.679499,29.3462589 C176.679499,28.82322 176.516022,28.3894281 176.189499,28.0465995 C175.84667,27.7196465 175.077773,27.4171507 173.884523,27.1399701 C168.32761,25.913682 164.805357,24.7942328 163.319051,23.7807645 C161.259505,22.3746951 160.229303,20.4219879 160.229303,17.9213556 C160.229303,15.6661525 161.120486,13.7696538 162.901135,12.2335756 C164.683072,10.6970683 167.445438,9.92860014 171.188234,9.92860014 C174.750391,9.92860014 177.398624,10.5091347 179.130788,11.6697748 C180.86381,12.8299858 182.057489,14.5462743 182.710537,16.8182112 L176.213527,18.0196131 C175.935917,17.0061448 175.409016,16.2299533 174.632396,15.6897515 L174.632396,15.6897515 Z M149.720898,15.6897515 C148.944706,15.1508369 147.838129,14.8813796 146.399021,14.8813796 C144.585333,14.8813796 143.285674,15.1349612 142.50133,15.6412663 C141.978291,16.0012579 141.716557,16.466372 141.716557,17.0383252 C141.716557,17.5296128 141.945253,17.9458127 142.403931,18.2890704 C143.024369,18.7464613 145.168871,19.3917858 148.839154,20.225902 C152.507292,21.05916 155.069711,22.0807807 156.524694,23.2907641 C157.962086,24.515765 158.682069,26.2239011 158.682069,28.4143143 C158.682069,30.8008134 157.684905,32.8513491 155.691007,34.5676376 C153.69668,36.2839261 150.747238,37.1420703 146.840966,37.1420703 C143.293826,37.1420703 140.486837,36.4229454 138.419567,34.9842666 C136.352298,33.5464459 134.999862,31.5933096 134.362261,29.1252868 L141.275471,28.0701985 C141.569385,29.4110488 142.166225,30.429237 143.065131,31.1230466 C143.963608,31.8181434 145.222935,32.1648337 146.840966,32.1648337 C148.622473,32.1648337 149.962894,31.8378807 150.8618,31.184833 C151.466363,30.7274421 151.76843,30.113869 151.76843,29.3462589 C151.76843,28.82322 151.604524,28.3894281 151.278,28.0465995 C150.935172,27.7196465 150.166274,27.4171507 148.973454,27.1399701 C143.41697,25.913682 139.893859,24.7942328 138.407553,23.7807645 C136.348007,22.3746951 135.318234,20.4219879 135.318234,17.9213556 C135.318234,15.6661525 136.208987,13.7696538 137.990924,12.2335756 C139.772002,10.6970683 142.53394,9.92860014 146.276736,9.92860014 C149.839751,9.92860014 152.487555,10.5091347 154.220577,11.6697748 C155.952741,12.8299858 157.145991,14.5462743 157.799467,16.8182112 L151.303316,18.0196131 C151.024419,17.0061448 150.497947,16.2299533 149.720898,15.6897515 L149.720898,15.6897515 Z M126.245075,24.0502218 C125.361615,24.3445652 123.964556,24.6968334 122.052611,25.1040229 C120.139378,25.5129286 118.889491,25.913682 118.300804,26.3054248 C117.401898,26.943026 116.95266,27.752256 116.95266,28.7326858 C116.95266,29.6972399 117.312651,30.530498 118.031347,31.2333181 C118.750472,31.9365673 119.665254,32.2875483 120.776551,32.2875483 C122.018714,32.2875483 123.204241,31.8795007 124.3327,31.0612602 C125.165958,30.4408219 125.712596,29.6813643 125.97433,28.781171 C126.15454,28.1937712 126.245075,27.073893 126.245075,25.4236816 L126.245075,24.0502218 Z M134.506429,36.5533833 L127.690619,36.5533833 C127.510837,36.0959925 127.289865,35.4176294 127.029419,34.5187234 C126.913998,34.1102467 126.832474,33.8407894 126.78356,33.7094933 C125.607474,34.8538287 124.348576,35.7119729 123.008155,36.2839261 C121.668162,36.8554501 120.238065,37.1420703 118.717862,37.1420703 C116.03702,37.1420703 113.925127,36.4147931 112.380467,34.9602386 C110.836237,33.505255 110.063907,31.66711 110.063907,29.4436583 C110.063907,27.9727991 110.414888,26.6615547 111.117708,25.509067 C111.820528,24.3565793 112.805249,23.474836 114.07187,22.8608338 C115.33892,22.2485479 117.16505,21.713495 119.551979,21.255246 C122.771736,20.6506834 125.001624,20.0868826 126.245075,19.5638437 L126.245075,18.8777574 C126.245075,17.5532117 125.917693,16.6096821 125.262929,16.0458814 C124.609881,15.4820806 123.376299,15.1997511 121.561323,15.1997511 C120.336323,15.1997511 119.379921,15.4413187 118.693834,15.9235958 C118.006461,16.4058729 117.450383,17.2511449 117.026031,18.4611283 L110.774879,17.3326686 C111.478129,14.8157316 112.686825,12.9527004 114.403113,11.7431461 C116.119402,10.5340209 118.668519,9.92860014 122.052611,9.92860014 C125.125196,9.92860014 127.413009,10.2924533 128.916478,11.0205887 C130.419946,11.7474369 131.478896,12.6708001 132.091611,13.7906783 C132.703897,14.9101275 133.011113,16.9645248 133.011113,19.9555865 L132.937742,27.9981143 C132.937742,30.2859269 133.048013,31.9730385 133.267698,33.0598781 C133.488241,34.1467178 133.901009,35.3112196 134.506429,36.5533833 L134.506429,36.5533833 Z M100.940546,36.5529543 L107.829728,36.5529543 L107.829728,0.612586266 L100.940546,0.612586266 L100.940546,36.5529543 Z" id="Fill-1" fill="#1D2231"></path>
                <g id="Group-5" transform="translate(67.755680, 0.000000)">
                    <mask id="mask-2" fill="white">
                        <use xlink:href="#path-1"></use>
                    </mask>
                    <g id="Clip-4"></g>
                    <path d="M21.3652172,7.82061172 C20.0170726,6.74192441 18.3784461,6.20258076 16.450196,6.20258076 C13.7865163,6.20258076 11.6244219,7.15855344 9.96605814,9.07178602 C8.30640718,10.9837314 7.47743984,14.080774 7.47743984,18.3624846 C7.47743984,22.9067875 8.29482223,26.1424203 9.92958701,28.0702414 C11.5630646,29.9993496 13.6878297,30.9639037 16.3030243,30.9639037 C17.8682794,30.9639037 19.2541823,30.5511364 20.4641657,29.7440517 L26.9126906,33.4675396 C26.5951772,33.7661738 26.2695115,34.0493614 25.9253956,34.3098081 C23.416611,36.2140302 20.233754,37.1665703 16.3768247,37.1665703 C11.6038264,37.1665703 7.6812491,35.5360963 4.60866364,32.2755772 C1.53607819,29.0150582 0,24.5574279 0,18.9013992 C0,12.9197048 1.54508871,8.27414095 4.63354983,4.96470769 C7.72286909,1.65484535 11.7836076,-8.58144241e-05 16.8179108,-8.58144241e-05 C21.2141838,-8.58144241e-05 24.7857801,1.29957364 27.5309835,3.8980344 C28.0081117,4.34641476 28.4470525,4.85958502 28.854671,5.42338579 L22.5696226,9.05161963 C22.2194997,8.59723226 21.8208917,8.18446488 21.3652172,7.82061172" id="Fill-3" fill="#1D2231" mask="url(#mask-2)"></path>
                </g>
                <path d="M94.6196705,30.0928015 C91.3660166,30.654886 88.6268202,27.6011797 88.6268202,27.6011797 C88.6268202,27.6011797 88.4985276,27.846609 88.4783612,27.8547613 C76.9131513,32.7092833 77.4743776,20.737313 77.4743776,20.737313 C77.4743776,20.737313 77.6524425,20.2340114 78.1124079,20.5738365 C85.2041119,25.8102327 85.8657411,18.1560151 90.7644575,20.2649046 C95.1040929,22.1322265 93.7229097,26.0715376 93.7229097,26.0715376 C93.7229097,26.0715376 93.6044858,26.2101279 93.5727345,26.3255483 C93.5418413,26.4405396 97.8625976,29.5320043 94.6196705,30.0928015 M83.6379986,21.4182505 C81.0708601,22.0747308 78.3363835,20.5510957 77.5207174,17.9805246 C76.6947536,15.3726243 78.1574604,12.6887782 80.7953958,12.021571 C83.4294696,11.3556511 86.1815382,12.9681041 86.936276,15.5863022 C87.6802871,18.1680292 86.2004173,20.7630573 83.6379986,21.4182505" id="Fill-6" fill="#50D0DB"></path>
                <g id="Group-10" transform="translate(0.000000, 10.786959)" fill="#1D2231">
                    <path d="M57.8110321,26.6243541 L57.8110321,11.7428458 C57.8110321,9.16154791 57.5746134,7.49417365 57.1000596,6.7424393 C56.4628875,5.76072229 55.4824577,5.27072193 54.1587702,5.27072193 C53.1942161,5.27072193 52.2867286,5.5650654 51.4375948,6.15375235 C50.5871739,6.7424393 49.974888,7.60444519 49.5985917,8.74019909 C49.2218664,9.87638206 49.03522,11.6694745 49.03522,14.1216216 L49.03522,26.6243541 L42.1464672,26.6243541 L42.1464672,12.3564189 C42.1464672,9.82274805 42.0228944,8.18841234 41.7783233,7.4534118 C41.532894,6.71755311 41.1527361,6.17091523 40.6378496,5.81092372 C40.122534,5.45093222 39.4248627,5.27072193 38.5418323,5.27072193 C37.4798788,5.27072193 36.523477,5.55691303 35.6739142,6.12886617 C34.8239224,6.70167745 34.2154981,7.52678313 33.8473542,8.6046123 C33.4796394,9.68372868 33.2955675,11.4733885 33.2955675,13.9744499 L33.2955675,26.6243541 L26.4068146,26.6243541 L26.4068146,0.588257877 L32.7566529,0.588257877 L32.7566529,4.14312039 C35.0277316,1.3820413 37.7334604,0 40.8704067,0 C42.53821,0 43.9846121,0.343686768 45.209613,1.02977309 C46.4359011,1.71585941 47.4412171,2.75421394 48.225561,4.14312039 C49.3690382,2.75421394 50.6043368,1.71585941 51.9275952,1.02977309 C53.2512827,0.343686768 54.6650753,0 56.1694022,0 C58.0813476,0 59.6993785,0.388310269 61.0226369,1.16535988 C62.3471826,1.9406932 63.3357647,3.0811669 63.9900997,4.5846356 C64.4633663,5.69636147 64.7010722,7.49417365 64.7010722,9.97807216 L64.7010722,26.6243541 L57.8110321,26.6243541 Z M15.9353095,6.82782465 C14.9548797,5.78989919 13.7616301,5.27072193 12.3559898,5.27072193 C10.8525211,5.27072193 9.61035735,5.81864702 8.62992755,6.91363907 C7.64863962,8.0090602 7.16636255,9.49665324 7.18309637,11.3759891 L17.47954,11.3759891 C17.4310549,9.38123284 16.9157393,7.86617918 15.9353095,6.82782465 L15.9353095,6.82782465 Z M7.06081081,15.5920518 C7.10972503,17.6352932 7.66537343,19.2254345 8.72732693,20.3607593 C9.78928042,21.4965132 11.1138261,22.0641756 12.6988185,22.0641756 C13.7775058,22.0641756 14.6845642,21.7698322 15.4204229,21.1820034 C16.1558525,20.5937455 16.7110719,19.6459252 17.0877972,18.3385424 L23.9516639,19.4910301 C23.0699207,22.0075381 21.6758654,23.9237742 19.7716433,25.2388803 C17.8674212,26.5557026 15.486071,27.2130411 12.6250181,27.2130411 C8.09787813,27.2130411 4.74811208,25.7344586 2.57443272,22.7751481 C0.85814424,20.4058119 0,17.4147501 0,13.802392 C0,9.4880718 1.12760153,6.10912885 3.3828046,3.66513405 C5.6388658,1.2219974 8.49090819,0 11.9389317,0 C15.8130239,0 18.8688756,1.27949306 21.1077739,3.83719197 C23.3471013,6.39531995 24.4180653,10.3131775 24.3198078,15.5920518 L7.06081081,15.5920518 Z" id="Fill-8"></path>
                </g>
            </g>
        </g>
    </g>
</svg>