<?xml version="1.0" encoding="UTF-8"?>
<svg width="14px" height="24px" viewBox="0 0 14 24" version="1.1" xmlns="http://www.w3.org/2000/svg" xmlns:xlink="http://www.w3.org/1999/xlink">
    <title>CA35261F-8EA3-46D9-ACC0-AD000665492B</title>
    <g id="Page-1" stroke="none" stroke-width="1" fill="none" fill-rule="evenodd">
        <g id="emHealth---homepage" transform="translate(-818.000000, -4736.000000)" fill="#293045" fill-rule="nonzero">
            <g id="footer" transform="translate(229.000000, 4579.000000)">
                <g id="Group" transform="translate(539.995335, 157.000000)">
                    <path d="M61.5207053,0.00499360195 L58.4084429,0 C54.9119228,0 52.6523179,2.3182797 52.6523179,5.90643238 L52.6523179,8.62969321 L49.5230772,8.62969321 C49.2526737,8.62969321 49.0337043,8.84891233 49.0337043,9.11931588 L49.0337043,13.0650105 C49.0337043,13.335414 49.2529234,13.5543834 49.5230772,13.5543834 L52.6523179,13.5543834 L52.6523179,23.510627 C52.6523179,23.7810306 52.8712874,24 53.1416909,24 L57.2244599,24 C57.4948634,24 57.7138328,23.7807809 57.7138328,23.510627 L57.7138328,13.5543834 L61.372645,13.5543834 C61.6430485,13.5543834 61.862018,13.335414 61.862018,13.0650105 L61.8635161,9.11931588 C61.8635161,8.98948223 61.8118323,8.86514154 61.7201997,8.77325926 C61.6285671,8.68137699 61.503727,8.62969321 61.3738934,8.62969321 L57.7138328,8.62969321 L57.7138328,6.32115103 C57.7138328,5.21157267 57.9782441,4.64829437 59.4236421,4.64829437 L61.5202059,4.64754533 C61.7903598,4.64754533 62.0093292,4.42832621 62.0093292,4.15817234 L62.0093292,0.494366593 C62.0093292,0.224462408 61.7906095,0.00549296214 61.5207053,0.00499360195 Z" id="face"></path>
                </g>
            </g>
        </g>
    </g>
</svg>