<?xml version="1.0" encoding="UTF-8"?>
<svg width="25px" height="24px" viewBox="0 0 25 24" version="1.1" xmlns="http://www.w3.org/2000/svg" xmlns:xlink="http://www.w3.org/1999/xlink">
    <title>71DE1814-2957-415A-8FC9-70792E5ACC7E</title>
    <g id="Page-1" stroke="none" stroke-width="1" fill="none" fill-rule="evenodd">
        <g id="emHealth---homepage" transform="translate(-768.000000, -4736.000000)" fill="#293045" fill-rule="nonzero">
            <g id="footer" transform="translate(229.000000, 4579.000000)">
                <g id="Group" transform="translate(539.995335, 157.000000)">
                    <path d="M13.4109555,0.0012714335 C14.777645,0.00445115349 15.4284623,0.0139136321 16.0416732,0.0356240645 L16.2576435,0.0438048489 C16.4742612,0.0525136255 16.6961344,0.0628355188 16.9530829,0.0750327883 C18.2283022,0.131257462 19.1004254,0.337475626 19.8644948,0.632884017 C20.6615298,0.932870998 21.3882381,1.40647676 21.9883951,2.01597407 C22.6026541,2.61613111 23.0714982,3.33807777 23.3762469,4.14445298 C23.6716552,4.90412687 23.8778734,5.78082869 23.9340981,7.05604799 C23.945343,7.31204418 23.9545294,7.53315545 23.9620309,7.74916364 L23.9689846,7.96457383 C23.986104,8.5403478 23.9921273,9.15042726 23.9941394,10.3595644 L23.9948949,11.1066087 C23.9949422,11.1974611 23.994979,11.2910672 23.9950071,11.3875649 L23.9950364,12.3188356 C23.995004,12.4212543 23.9949549,12.5206436 23.9948881,12.6171413 L23.9942659,13.1625314 C23.9917107,14.701223 23.9827338,15.3923866 23.9612827,16.0401323 L23.9494897,16.3641098 C23.9423293,16.5462235 23.9341286,16.735328 23.9247578,16.9486582 C23.8685331,18.2238775 23.6621319,19.0960007 23.3669066,19.8602532 C22.7433073,21.4730036 21.468088,22.7482229 19.8551545,23.3718222 C19.0956637,23.6672305 18.2189619,23.8734487 16.9437426,23.9296734 C15.7917597,23.9804404 15.3461967,23.9967913 12.8931819,23.9995539 L11.1016882,23.9995539 C8.64864539,23.9967913 8.20295052,23.9804404 7.05113242,23.9296734 C5.77573004,23.8734487 4.90378989,23.6672305 4.13953742,23.3718222 C3.34250247,23.0718352 2.61579414,22.5982294 2.01563709,21.9887321 C1.40613978,21.3885751 0.932717106,20.6666284 0.62796845,19.8602532 C0.332560059,19.1005793 0.126158812,18.2238775 0.0699341382,16.9486582 C0.0605633593,16.735328 0.0523626563,16.5462235 0.0452023034,16.3641098 L0.0299485088,15.9316348 C0.012096293,15.3493666 0.00383454719,14.6974959 0.000912412876,13.4112704 L0.000934457664,10.5934137 C0.00411417766,9.2267242 0.0135766562,8.57590688 0.0352870886,7.96269597 L0.0434678731,7.74672566 C0.0521766497,7.53010797 0.0624985429,7.30823484 0.0746958125,7.05128631 C0.130920486,5.77606702 0.33713865,4.90412687 0.632547041,4.13987439 C0.932717106,3.34283945 1.40613978,2.61613111 2.01563709,2.01597407 C2.61579414,1.40171508 3.3377408,0.932870998 4.14429909,0.628122342 C4.90378989,0.332897035 5.78049172,0.126495788 7.05571101,0.070271114 C7.26904117,0.0609003351 7.45814569,0.0526996321 7.64025943,0.0455392792 L8.07273437,0.0302854846 C8.65500259,0.0124332689 9.30687331,0.00417152303 10.5930988,0.00124938871 Z M12.616158,2.18026583 L11.4074755,2.18026583 C8.75471485,2.18213697 8.34506886,2.19791975 7.16358177,2.25039611 C5.99623323,2.30204219 5.35853204,2.49892009 4.93657236,2.66301552 C4.41608219,2.85513175 3.94723811,3.1598804 3.55824398,3.55839788 C3.15496484,3.94299649 2.85021618,4.41641917 2.65791687,4.93690934 C2.49382144,5.35886901 2.29694354,5.99180853 2.24548054,7.16391874 C2.23607925,7.37410497 2.22785821,7.55993837 2.22068514,7.73852323 L2.21257202,7.95044045 C2.1884198,8.61742681 2.17863641,9.27853879 2.17596399,10.8723233 L2.17596399,13.1508522 C2.17962098,15.3309768 2.19659382,15.7625559 2.24548054,16.859651 C2.29694354,18.0269996 2.49382144,18.6647008 2.65791687,19.0866605 C2.85021618,19.6069675 3.15496484,20.0758116 3.55348231,20.4649888 C3.93789784,20.8635063 4.4115036,21.168255 4.93181069,21.3605543 C5.35377036,21.5246497 5.98670988,21.7215276 7.15882009,21.7729906 C7.36903683,21.7823919 7.55489566,21.7906129 7.73350171,21.797786 L7.94544238,21.8058991 C8.6124969,21.8300513 9.27362073,21.8398347 10.8674073,21.8425071 L13.1459277,21.8425071 C15.3260156,21.8388502 15.7574572,21.8218773 16.8545524,21.7729906 C18.022084,21.7215276 18.6596021,21.5246497 19.0815618,21.3605543 C20.1271207,20.9572751 20.9569381,20.1274577 21.3602173,19.0818988 C21.5243127,18.6599391 21.7211906,18.0269996 21.7728367,16.8548894 C21.7822075,16.6439095 21.7904082,16.4576742 21.7975685,16.2789707 L21.8056699,16.06704 C21.8297954,15.4003975 21.8396476,14.7430918 21.8423448,13.1506208 L21.842967,12.6155478 C21.8431006,12.4260937 21.8431633,12.2251761 21.8431633,12.0116934 L21.8431153,11.7007404 C21.8430829,11.6001341 21.8430338,11.5025266 21.842967,11.4077806 L21.8423448,10.8725434 C21.8386539,8.69245549 21.8215648,8.2610139 21.7728367,7.16391874 C21.7211906,5.99638712 21.5243127,5.35886901 21.3602173,4.93690934 C21.167918,4.41641917 20.8631693,3.94757508 20.4646519,3.55839788 C20.0802363,3.1598804 19.6066306,2.85513175 19.0863235,2.66301552 C18.6643638,2.49892009 18.0314243,2.30204219 16.8593141,2.25039611 C16.607054,2.23915118 16.3900598,2.22959115 16.1786594,2.22149187 L15.9680248,2.2138712 C15.2647983,2.19003666 14.5138299,2.18160236 12.616158,2.18026583 Z M12.0020161,5.83705336 C15.4058974,5.83705336 18.1673158,8.59847179 18.1673158,12.0023531 C18.1673158,15.4062344 15.4058974,18.1676528 12.0020161,18.1676528 C8.5983179,18.1676528 5.83671639,15.4062344 5.83671639,12.0023531 C5.83671639,8.59847179 8.5983179,5.83705336 12.0020161,5.83705336 Z M12.0020161,8.00307642 C9.79387032,8.00307642 8.00273945,9.79402421 8.00273945,12.0023531 C8.00273945,14.210682 9.79387032,16.0016298 12.0020161,16.0016298 C14.210345,16.0016298 16.0012928,14.210682 16.0012928,12.0023531 C16.0012928,9.79402421 14.210345,8.00307642 12.0020161,8.00307642 Z M18.4110781,4.15397633 C19.2060985,4.15397633 19.850576,4.79827069 19.850576,5.59329106 C19.850576,6.3881283 19.2060985,7.03260578 18.4110781,7.03260578 C17.6162409,7.03260578 16.9717634,6.3881283 16.9717634,5.59329106 C16.9717634,4.79827069 17.6162409,4.15397633 18.4110781,4.15397633 Z" id="IG"></path>
                </g>
            </g>
        </g>
    </g>
</svg>