<?xml version="1.0" encoding="UTF-8"?>
<svg width="25px" height="24px" viewBox="0 0 25 24" version="1.1" xmlns="http://www.w3.org/2000/svg" xmlns:xlink="http://www.w3.org/1999/xlink">
    <title>linkedin</title>
    <g id="Page-1" stroke="none" stroke-width="1" fill="none" fill-rule="evenodd">
        <g id="emHealth---homepage" transform="translate(-831.000000, -4736.000000)" fill="#293045" fill-rule="nonzero">
            <g id="footer" transform="translate(229.000000, 4579.000000)">
                <g id="Group" transform="translate(515.475945, 157.000000)">
                    <path d="M105.08711,7.574 C110.12111,7.574 111.04811,10.891 111.04811,15.197 L111.04811,15.197 L111.04811,23.999 L111.04211,23.999 L111.04211,24 L106.07711,24 L106.07711,16.199 C106.07711,14.34 106.03911,11.956 103.49011,11.956 C100.90311,11.956 100.50711,13.976 100.50711,16.065 L100.50711,16.065 L100.50711,23.999 L95.5371103,23.999 L95.5371103,7.976 L100.31011,7.976 L100.31011,10.161 L100.38011,10.161 C101.04311,8.902 102.66711,7.574 105.08711,7.574 Z M92.4201103,7.977 L92.4201103,24 L87.4441103,24 L87.4441103,7.977 L92.4201103,7.977 Z M89.9301103,0 C91.5201103,0 92.8111103,1.291 92.8121103,2.882 C92.8121103,4.473 91.5211103,5.791 89.9301103,5.791 C88.3391103,5.791 87.0481103,4.473 87.0481103,2.882 C87.0481103,1.291 88.3391103,0 89.9301103,0 Z" id="linkedin"></path>
                </g>
            </g>
        </g>
    </g>
</svg>