<?xml version="1.0" encoding="UTF-8"?>
<svg width="26px" height="28px" viewBox="0 0 26 28" version="1.1" xmlns="http://www.w3.org/2000/svg" xmlns:xlink="http://www.w3.org/1999/xlink">
    <title>5C7714BB-3212-4FAE-94C4-8340DC8688B6</title>
    <g id="Page-1" stroke="none" stroke-width="1" fill="none" fill-rule="evenodd">
        <g id="emHealth---contact-popup" transform="translate(-326.000000, -579.000000)" fill="#C0C0C0" fill-rule="nonzero">
            <path d="M345.217562,597.850508 C348.862211,598.691711 351.109375,600.234336 351.109375,602.078125 C351.109375,605.275266 344.769563,607 338.804688,607 C332.839812,607 326.5,605.275266 326.5,602.078125 C326.5,600.235648 328.744047,598.693844 332.384266,597.852203 L332.384266,597.852203 L336.521594,604.309977 C337.585648,605.969906 340.017766,605.975375 341.086961,604.308391 L341.086961,604.308391 Z M338.804688,579 C343.780211,579 347.828125,583.047914 347.828125,588.023438 C347.828125,589.899602 347.254563,591.702813 346.16825,593.238492 L346.16825,593.238492 L339.495227,603.641422 C339.173555,604.144437 338.436477,604.145422 338.114148,603.641422 L338.114148,603.641422 L331.469945,593.273766 C330.359734,591.665188 329.78125,589.948547 329.78125,588.023438 C329.78125,582.963203 333.884727,579 338.804688,579 Z M338.804688,583.921875 C336.543195,583.921875 334.703125,585.761945 334.703125,588.023438 C334.703125,590.28493 336.543195,592.125 338.804688,592.125 C341.06618,592.125 342.90625,590.28493 342.90625,588.023438 C342.90625,585.761945 341.06618,583.921875 338.804688,583.921875 Z" id="location"></path>
        </g>
    </g>
</svg>