<?xml version="1.0" encoding="UTF-8"?>
<svg width="198px" height="42px" viewBox="0 0 198 42" version="1.1" xmlns="http://www.w3.org/2000/svg" xmlns:xlink="http://www.w3.org/1999/xlink">
    <title>FC9DAF2B-A1D9-4FFF-89E1-DCDF5D5083CA</title>
    <g id="Page-1" stroke="none" stroke-width="1" fill="none" fill-rule="evenodd">
        <g id="emHealth---homepage" transform="translate(-701.000000, -4612.000000)">
            <g id="footer" transform="translate(229.000000, 4579.000000)">
                <g id="logo-footer" transform="translate(472.203714, 33.000000)">
                    <path d="M21.5972142,31.6767266 L6.26465467,31.6767266 C6.30731283,33.4927452 6.80092861,34.9004643 7.74550203,35.912072 C8.69007545,36.9236796 9.86622171,37.4233894 11.2739408,37.4233894 C12.2307023,37.4233894 13.0412072,37.1613465 13.6932676,36.6372606 C14.3453279,36.1131747 14.8389437,35.2721997 15.1741149,34.1082414 L21.274231,35.1320371 C20.4881021,37.3685432 19.2510157,39.0687754 17.5629716,40.2388276 C15.8688334,41.4088799 13.7542078,41.993906 11.2130006,41.993906 C7.19094602,41.993906 4.21706326,40.6775972 2.28525827,38.0510737 C0.761752757,35.9486361 0,33.2916425 0,30.0800929 C0,26.246953 0.999419617,23.2426001 3.00435287,21.0731283 C5.00928613,18.9036564 7.5443993,17.8189205 10.6035984,17.8189205 C14.0467208,17.8189205 16.7585607,18.9524086 18.7513059,21.2254788 C20.731863,23.5046431 21.6886245,26.9843297 21.5972142,31.6767266 L21.5972142,31.6767266 Z M14.1503192,23.8885665 C13.2788741,22.9683691 12.2185142,22.5052234 10.9692397,22.5052234 C9.63464887,22.5052234 8.53163088,22.9927452 7.66018572,23.9677887 C6.78874057,24.9428323 6.36215902,26.259141 6.37434707,27.9289031 L15.5214742,27.9289031 C15.478816,26.1616367 15.0217644,24.8148578 14.1503192,23.8885665 L14.1503192,23.8885665 Z M52.2440511,41.4759141 L52.2440511,28.2579803 C52.2440511,25.966628 52.0307603,24.4857806 51.6102728,23.8154382 C51.0435287,22.943993 50.1720836,22.5113175 48.9959373,22.5113175 C48.1366802,22.5113175 47.3322693,22.7733604 46.5766106,23.2974463 C45.8209518,23.8215322 45.2785839,24.583285 44.9434127,25.5948926 C44.6082414,26.6065003 44.4437028,28.19704 44.4437028,30.3726059 L44.4437028,41.4820081 L38.3253047,41.4820081 L38.3253047,28.8064423 C38.3253047,26.5577481 38.2156123,25.1012768 37.9962275,24.4492165 C37.7768427,23.7971561 37.4416715,23.3096344 36.9846198,22.9866512 C36.5275682,22.669762 35.9059779,22.5052234 35.1198491,22.5052234 C34.1752757,22.5052234 33.3282066,22.7611724 32.5725479,23.2669762 C31.8168891,23.77278 31.2745212,24.5101567 30.951538,25.4669182 C30.6224608,26.4236796 30.4640163,28.0142194 30.4640163,30.2385374 L30.4640163,41.4759141 L24.3456181,41.4759141 L24.3456181,18.3491004 L29.9886825,18.3491004 L29.9886825,21.5058038 C32.0058038,19.0499129 34.4068485,17.8250145 37.1979106,17.8250145 C38.678758,17.8250145 39.9645966,18.1297156 41.0554266,18.7391178 C42.1462565,19.34852 43.0359837,20.2687174 43.7367963,21.5058038 C44.754498,20.2687174 45.8514219,19.34852 47.0275682,18.7391178 C48.2037145,18.1297156 49.459083,17.8250145 50.7936738,17.8250145 C52.493906,17.8250145 53.9320952,18.1723738 55.1082414,18.8609983 C56.2843877,19.5496228 57.1619269,20.5612304 57.746953,21.9019153 C58.1674405,22.8891468 58.3807313,24.4857806 58.3807313,26.6918166 L58.3807313,41.4820081 L52.2440511,41.4820081 L52.2440511,41.4759141 Z M81.8244341,41.4759141 L81.8244341,27.5145096 L69.1915264,27.5145096 L69.1915264,41.4759141 L62.7440511,41.4759141 L62.7440511,9.54933256 L69.1915264,9.54933256 L69.1915264,22.115206 L81.8244341,22.115206 L81.8244341,9.54933256 L88.2719095,9.54933256 L88.2719095,41.4759141 L81.8244341,41.4759141 L81.8244341,41.4759141 Z M112.922229,31.6767266 L97.5896692,31.6767266 C97.6323273,33.4927452 98.1259431,34.9004643 99.0705165,35.912072 C100.01509,36.9236796 101.191236,37.4233894 102.598955,37.4233894 C103.555717,37.4233894 104.366222,37.1613465 105.018282,36.6372606 C105.670342,36.1131747 106.163958,35.2721997 106.499129,34.1082414 L112.599246,35.1320371 C111.813117,37.3685432 110.57603,39.0687754 108.887986,40.2388276 C107.193848,41.4088799 105.079222,41.993906 102.538015,41.993906 C98.5159605,41.993906 95.5420778,40.6775972 93.6102728,38.0510737 C92.0867673,35.9486361 91.3250145,33.2916425 91.3250145,30.0800929 C91.3250145,26.246953 92.3244341,23.2426001 94.3293674,21.0731283 C96.3343006,18.9036564 98.8694138,17.8189205 101.928613,17.8189205 C105.371735,17.8189205 108.083575,18.9524086 110.07632,21.2254788 C112.062972,23.5046431 113.013639,26.9843297 112.922229,31.6767266 L112.922229,31.6767266 Z M105.475334,23.8885665 C104.603889,22.9683691 103.543529,22.5052234 102.294254,22.5052234 C100.959663,22.5052234 99.8566454,22.9927452 98.9852002,23.9677887 C98.1137551,24.9428323 97.6871735,26.259141 97.6993616,27.9289031 L106.846489,27.9289031 C106.803831,26.1616367 106.346779,24.8148578 105.475334,23.8885665 L105.475334,23.8885665 Z M136.231863,41.4759141 L130.174405,41.4759141 C130.015961,41.0676146 129.820952,40.4643064 129.583285,39.6659896 C129.479687,39.3003482 129.406558,39.0626814 129.3639,38.946895 C128.315728,39.9645966 127.200522,40.7263494 126.012188,41.2321532 C124.823854,41.7379571 123.550203,41.993906 122.203424,41.993906 C119.820662,41.993906 117.943703,41.3479396 116.572548,40.056007 C115.201393,38.7640743 114.512768,37.1308764 114.512768,35.1564132 C114.512768,33.8522925 114.823564,32.6822403 115.451248,31.6584446 C116.072838,30.6346489 116.950377,29.84852 118.077771,29.3061521 C119.205165,28.7637841 120.826175,28.2884504 122.946895,27.8801509 C125.804991,27.343877 127.791642,26.8441672 128.89466,26.3749275 L128.89466,25.7655252 C128.89466,24.589379 128.602147,23.754498 128.023215,23.2486941 C127.444283,22.7489843 126.347359,22.4991294 124.732443,22.4991294 C123.641613,22.4991294 122.794544,22.7124202 122.185142,23.1450958 C121.57574,23.5716773 121.082124,24.327336 120.704295,25.3998839 L115.152641,24.4004643 C115.774231,22.1639582 116.852873,20.5063842 118.376378,19.4338363 C119.899884,18.3612885 122.16686,17.8189205 125.171213,17.8189205 C127.901335,17.8189205 129.930644,18.1419037 131.271329,18.78787 C132.60592,19.4338363 133.550493,20.2565293 134.092861,21.2498549 C134.635229,22.2431805 134.90946,24.0713871 134.90946,26.7283807 L134.842426,33.8705746 C134.842426,35.9059779 134.93993,37.4051074 135.134939,38.3679629 C135.323854,39.3430064 135.695589,40.3728961 136.231863,41.4759141 L136.231863,41.4759141 Z M128.888566,30.3726059 C128.102438,30.6346489 126.865351,30.945444 125.165119,31.3110853 C123.464887,31.6767266 122.355775,32.0301799 121.831689,32.3775392 C121.033372,32.9442832 120.637261,33.6633778 120.637261,34.534823 C120.637261,35.3940801 120.95415,36.1314568 121.594022,36.759141 C122.233894,37.3807313 123.044399,37.6976204 124.031631,37.6976204 C125.134649,37.6976204 126.188915,37.3319791 127.188334,36.6067905 C127.931805,36.0583285 128.413233,35.381892 128.6509,34.5835752 C128.809344,34.0594893 128.888566,33.0661637 128.888566,31.5975044 L128.888566,30.3726059 L128.888566,30.3726059 Z M139.1509,41.4759141 L139.1509,9.54933256 L145.269298,9.54933256 L145.269298,41.4759141 L139.1509,41.4759141 L139.1509,41.4759141 Z M156.183691,32.5481718 C156.183691,34.4373186 156.226349,35.5342426 156.305572,35.8450377 C156.384794,36.1558328 156.567615,36.4178758 156.84794,36.6189785 C157.134359,36.8200813 157.475624,36.9236796 157.883923,36.9236796 C158.450667,36.9236796 159.27336,36.7286709 160.345908,36.3386535 L160.869994,41.0858967 C159.443993,41.6952989 157.835171,42 156.037435,42 C154.934417,42 153.941091,41.8171793 153.051364,41.445444 C152.167731,41.0737086 151.51567,40.5983749 151.101277,40.0072548 C150.686883,39.4222287 150.400464,38.6239118 150.24202,37.6244922 C150.114045,36.9114916 150.047011,35.4733024 150.047011,33.3099246 L150.047011,23.224318 L147.237667,23.224318 L147.237667,18.3430064 L150.047011,18.3430064 L150.047011,13.7481138 L156.189785,10.1770168 L156.189785,18.3430064 L160.370284,18.3430064 L160.370284,23.224318 L156.189785,23.224318 L156.189785,32.5481718 L156.183691,32.5481718 Z M177.744341,41.4759141 L177.744341,29.2573999 C177.744341,26.8319791 177.628555,25.2962855 177.396982,24.6381312 C177.165409,23.9860708 176.75711,23.4680789 176.16599,23.0780615 C175.574869,22.6941381 174.837493,22.4991294 173.95386,22.4991294 C172.936158,22.4991294 172.028149,22.7489843 171.229832,23.2426001 C170.431515,23.7362159 169.846489,24.4796866 169.474753,25.4730122 C169.103018,26.4663378 168.920197,27.9349971 168.920197,29.8850842 L168.920197,41.4698201 L162.801799,41.4698201 L162.801799,9.54933256 L168.920197,9.54933256 L168.920197,21.286419 C170.89466,18.9767847 173.253047,17.8250145 175.995357,17.8250145 C177.403076,17.8250145 178.676727,18.0870575 179.804121,18.6111434 C180.937609,19.1352293 181.790772,19.7994777 182.36361,20.6160766 C182.936448,21.4265815 183.332559,22.3284968 183.539756,23.3157284 C183.753047,24.30296 183.856645,25.8325595 183.856645,27.910621 L183.856645,41.4820081 L177.744341,41.4820081 L177.744341,41.4759141 Z" id="Shape" fill="#293045" fill-rule="nonzero"></path>
                    <polygon id="Path" fill="#50D0DB" points="197.592571 7.23360418 197.537725 13.2362159 190.962275 13.2423099 190.962275 19.5861869 184.935287 19.5861869 184.935287 13.2484039 178.006384 13.260592 178.006384 7.23360418 184.935287 7.23360418 184.935287 0 190.962275 0 190.962275 7.23360418"></polygon>
                </g>
            </g>
        </g>
    </g>
</svg>