<?xml version="1.0" encoding="UTF-8"?>
<svg width="222px" height="48px" viewBox="0 0 222 48" version="1.1" xmlns="http://www.w3.org/2000/svg" xmlns:xlink="http://www.w3.org/1999/xlink">
    <title>3A4B9FBD-8C7D-4018-800D-3FCEEED500AC</title>
    <g id="Page-1" stroke="none" stroke-width="1" fill="none" fill-rule="evenodd">
        <g id="emHealth---homepage" transform="translate(-68.000000, -40.000000)">
            <g id="header" transform="translate(68.500000, 40.290000)">
                <g id="logo" transform="translate(0.000000, 0.000000)">
                    <path d="M24.1683111,35.4477655 L7.01044689,35.4477655 C7.0581834,37.4799768 7.61056297,39.0552815 8.66758561,40.1873186 C9.72460824,41.3193558 11.0407719,41.8785548 12.6160766,41.8785548 C13.6867382,41.8785548 14.5937319,41.5853163 15.3234185,40.9988392 C16.053105,40.4123622 16.6054846,39.471271 16.9805572,38.1687464 L23.8068775,39.3144225 C22.9271619,41.8171793 21.5428033,43.7198201 19.6538015,45.0291642 C17.7579803,46.3385084 15.3916135,46.9931805 12.5478816,46.9931805 C8.04701103,46.9931805 4.7190946,45.5201683 2.55731283,42.5809634 C0.852437609,40.2282356 0,37.2549333 0,33.6610563 C0,29.3715902 1.11839814,26.0095763 3.36201393,23.581834 C5.60562972,21.1540917 8.44254208,19.9402205 11.8659315,19.9402205 C15.7189495,19.9402205 18.7536274,21.2086477 20.9836042,23.7523215 C23.199942,26.3028149 24.2706036,30.1967499 24.1683111,35.4477655 L24.1683111,35.4477655 Z M15.834881,26.7324434 C14.8596924,25.7026988 13.6730992,25.1844167 12.2751016,25.1844167 C10.7816309,25.1844167 9.54730122,25.7299768 8.57211259,26.8210969 C7.59692397,27.9122171 7.11955891,29.3852293 7.13319791,31.2537725 L17.3692687,31.2537725 C17.3215322,29.2761172 16.8100696,27.7690075 15.834881,26.7324434 L15.834881,26.7324434 Z M58.463581,46.4135229 L58.463581,31.6220255 C58.463581,29.0578932 58.2248984,27.4007545 57.7543529,26.6506094 C57.1201393,25.6754208 56.1449507,25.1912362 54.828787,25.1912362 C53.8672374,25.1912362 52.9670633,25.4844748 52.1214452,26.0709518 C51.275827,26.6574289 50.6688915,27.5098665 50.2938189,28.6419037 C49.9187464,29.7739408 49.7346198,31.5538305 49.7346198,33.9883923 L49.7346198,46.4203424 L42.887841,46.4203424 L42.887841,32.2357806 C42.887841,29.7193848 42.76509,28.0895241 42.5195879,27.3598375 C42.2740859,26.6301509 41.8990133,26.0845908 41.3875508,25.7231573 C40.8760882,25.3685432 40.1804991,25.1844167 39.3007835,25.1844167 C38.2437609,25.1844167 37.2958503,25.4708358 36.4502322,26.0368543 C35.604614,26.6028729 34.9976785,27.4280325 34.6362449,28.4986941 C34.2679919,29.5693558 34.0906849,31.3492455 34.0906849,33.8383633 L34.0906849,46.4135229 L27.243906,46.4135229 L27.243906,20.5335171 L33.5587638,20.5335171 L33.5587638,24.0660186 C35.8160186,21.3177597 38.5029019,19.94704 41.6262333,19.94704 C43.283372,19.94704 44.7222867,20.2880151 45.9429774,20.9699652 C47.163668,21.6519153 48.1593151,22.6816599 48.9435577,24.0660186 C50.0824144,22.6816599 51.3099246,21.6519153 52.6260882,20.9699652 C53.9422519,20.2880151 55.3470691,19.94704 56.8405398,19.94704 C58.7431805,19.94704 60.3525827,20.3357516 61.6687464,21.1063552 C62.98491,21.8769588 63.9669182,23.0089959 64.6215902,24.5092861 C65.0921358,25.6140453 65.3308183,27.4007545 65.3308183,29.8694138 L65.3308183,46.4203424 L58.463581,46.4203424 L58.463581,46.4135229 Z M91.5654382,46.4135229 L91.5654382,30.7900464 L77.4286129,30.7900464 L77.4286129,46.4135229 L70.213581,46.4135229 L70.213581,10.6861579 L77.4286129,10.6861579 L77.4286129,24.7479687 L91.5654382,24.7479687 L91.5654382,10.6861579 L98.7804701,10.6861579 L98.7804701,46.4135229 L91.5654382,46.4135229 L91.5654382,46.4135229 Z M126.365351,35.4477655 L109.207487,35.4477655 C109.255223,37.4799768 109.807603,39.0552815 110.864626,40.1873186 C111.921648,41.3193558 113.237812,41.8785548 114.813117,41.8785548 C115.883778,41.8785548 116.790772,41.5853163 117.520459,40.9988392 C118.250145,40.4123622 118.802525,39.471271 119.177597,38.1687464 L126.003918,39.3144225 C125.124202,41.8171793 123.739843,43.7198201 121.850842,45.0291642 C119.95502,46.3385084 117.588654,46.9931805 114.744922,46.9931805 C110.244051,46.9931805 106.916135,45.5201683 104.754353,42.5809634 C103.049478,40.2282356 102.19704,37.2549333 102.19704,33.6610563 C102.19704,29.3715902 103.315438,26.0095763 105.559054,23.581834 C107.80267,21.1540917 110.639582,19.9402205 114.062972,19.9402205 C117.91599,19.9402205 120.950667,21.2086477 123.180644,23.7523215 C125.403802,26.3028149 126.467644,30.1967499 126.365351,35.4477655 L126.365351,35.4477655 Z M118.031921,26.7324434 C117.056732,25.7026988 115.870139,25.1844167 114.472142,25.1844167 C112.978671,25.1844167 111.744341,25.7299768 110.769153,26.8210969 C109.793964,27.9122171 109.316599,29.3852293 109.330238,31.2537725 L119.566309,31.2537725 C119.518572,29.2761172 119.00711,27.7690075 118.031921,26.7324434 L118.031921,26.7324434 Z M152.449942,46.4135229 L145.671358,46.4135229 C145.494051,45.9566164 145.275827,45.2814858 145.009867,44.3881312 C144.893935,43.9789611 144.812101,43.7130006 144.764364,43.5834301 C143.59141,44.7222867 142.343442,45.5747243 141.013639,46.1407429 C139.683836,46.7067615 138.258561,46.9931805 136.751451,46.9931805 C134.085026,46.9931805 131.98462,46.2703134 130.450232,44.8245792 C128.915844,43.378845 128.145241,41.5512188 128.145241,39.3417005 C128.145241,37.8823273 128.493035,36.5729832 129.195444,35.427307 C129.891033,34.2816309 130.873041,33.4019153 132.134649,32.7949797 C133.396257,32.1880441 135.210244,31.656123 137.58343,31.1992165 C140.781776,30.5991004 143.004933,30.0399013 144.239263,29.5147998 L144.239263,28.8328497 C144.239263,27.516686 143.911927,26.5824144 143.264074,26.0163958 C142.616222,25.4571967 141.388712,25.1775972 139.581544,25.1775972 C138.360853,25.1775972 137.412943,25.4162797 136.730992,25.9004643 C136.049042,26.3778294 135.496663,27.2234475 135.073854,28.4236796 L128.861288,27.3052815 C129.556878,24.8025247 130.763929,22.9476204 132.468804,21.7473883 C134.17368,20.5471561 136.710534,19.9402205 140.072548,19.9402205 C143.127684,19.9402205 145.398578,20.3016541 146.898868,21.0245212 C148.392339,21.7473883 149.449362,22.6680209 150.056297,23.7795995 C150.663233,24.8911782 150.97011,26.9370284 150.97011,29.9103308 L150.895096,37.9027858 C150.895096,40.1804991 151.004208,41.8580963 151.222432,42.9355775 C151.433836,44.0266976 151.849826,45.1791933 152.449942,46.4135229 L152.449942,46.4135229 Z M144.232443,33.9883923 C143.352728,34.2816309 141.968369,34.6294254 140.065728,35.0385955 C138.163088,35.4477655 136.921938,35.8432966 136.335461,36.2320081 C135.442107,36.8662217 134.998839,37.6709228 134.998839,38.6461114 C134.998839,39.6076611 135.353453,40.4328207 136.069501,41.1352293 C136.785548,41.8308183 137.692542,42.1854324 138.797301,42.1854324 C140.031631,42.1854324 141.211405,41.7762623 142.329803,40.9647417 C143.161782,40.3509867 143.700522,39.5940221 143.966483,38.7006674 C144.14379,38.1141904 144.232443,37.0026117 144.232443,35.359112 L144.232443,33.9883923 L144.232443,33.9883923 Z M155.716483,46.4135229 L155.716483,10.6861579 L162.563262,10.6861579 L162.563262,46.4135229 L155.716483,46.4135229 L155.716483,46.4135229 Z M174.776988,36.4229541 C174.776988,38.5369994 174.824724,39.7645096 174.913378,40.1123041 C175.002031,40.4600987 175.206616,40.7533372 175.520313,40.9783807 C175.84083,41.2034243 176.222722,41.3193558 176.679629,41.3193558 C177.313842,41.3193558 178.234475,41.1011317 179.434707,40.6646837 L180.021184,45.9770749 C178.425421,46.659025 176.625073,47 174.61332,47 C173.37899,47 172.267411,46.795415 171.271764,46.3794254 C170.282937,45.9634359 169.55325,45.4315148 169.089524,44.7700232 C168.625798,44.1153511 168.305281,43.2219965 168.127974,42.1035984 C167.984765,41.3057168 167.90975,39.6963146 167.90975,37.2753918 L167.90975,25.9891178 L164.765961,25.9891178 L164.765961,20.5266976 L167.90975,20.5266976 L167.90975,15.384794 L174.783807,11.3885665 L174.783807,20.5266976 L179.461985,20.5266976 L179.461985,25.9891178 L174.783807,25.9891178 L174.783807,36.4229541 L174.776988,36.4229541 Z M198.904382,46.4135229 L198.904382,32.7404237 C198.904382,30.0262623 198.774811,28.3077481 198.51567,27.571242 C198.256529,26.8415554 197.799623,26.2618979 197.138131,25.8254498 C196.47664,25.3958212 195.65148,25.1775972 194.662652,25.1775972 C193.523796,25.1775972 192.50769,25.4571967 191.614335,26.0095763 C190.720981,26.5619559 190.066309,27.393935 189.650319,28.5055136 C189.23433,29.6170923 189.029745,31.260592 189.029745,33.4428323 L189.029745,46.4067034 L182.182966,46.4067034 L182.182966,10.6861579 L189.029745,10.6861579 L189.029745,23.8205165 C191.239263,21.2359257 193.87841,19.94704 196.947185,19.94704 C198.52249,19.94704 199.947766,20.2402786 201.209373,20.8267557 C202.4778,21.4132327 203.43253,22.1565583 204.073564,23.0703714 C204.714597,23.9773651 205.157864,24.9866512 205.389727,26.0914103 C205.62841,27.1961695 205.744341,28.9078642 205.744341,31.233314 L205.744341,46.4203424 L198.904382,46.4203424 L198.904382,46.4135229 Z" id="Shape" fill="#293045" fill-rule="nonzero"></path>
                    <polygon id="Path" fill="#50D0DB" points="221.115496 8.09474753 221.054121 14.8119559 213.695879 14.8187754 213.695879 21.9178758 206.951393 21.9178758 206.951393 14.8255949 199.19762 14.8392339 199.19762 8.09474753 206.951393 8.09474753 206.951393 0 213.695879 0 213.695879 8.09474753"></polygon>
                </g>
            </g>
        </g>
    </g>
</svg>