<?xml version="1.0" encoding="UTF-8"?>
<svg width="29px" height="28px" viewBox="0 0 29 28" version="1.1" xmlns="http://www.w3.org/2000/svg" xmlns:xlink="http://www.w3.org/1999/xlink">
    <title>862B8E46-C560-487E-B9C3-4832AF26098A</title>
    <g id="Page-1" stroke="none" stroke-width="1" fill="none" fill-rule="evenodd">
        <g id="emHealth---contact-popup" transform="translate(-326.000000, -659.000000)" fill="#C0C0C0" fill-rule="nonzero">
            <path d="M332.564185,659.130829 C333.009504,658.908054 333.551203,659.060466 333.815026,659.482764 L333.815026,659.482764 L337.258579,664.829854 C337.497046,665.211226 337.440587,665.706743 337.122439,666.024694 L337.122439,666.024694 L334.959658,668.18651 C334.747845,668.396843 334.645959,668.693758 334.684,668.989828 C334.82014,670.060598 335.423594,672.733178 338.096174,675.405757 C340.768753,678.078337 343.441333,678.681792 344.512103,678.817931 C344.808173,678.855972 345.105088,678.754086 345.315421,678.542273 L345.315421,678.542273 L347.477237,676.379492 C347.795428,676.061657 348.290923,676.005601 348.672077,676.244318 L348.672077,676.244318 L354.019167,679.686905 C354.43971,679.95121 354.591112,680.491456 354.369171,680.935815 L354.369171,680.935815 L351.765627,686.463942 C351.588304,686.824055 351.205691,687.035869 350.806375,686.994982 C348.053174,686.705323 341.289655,685.506139 334.642,678.858 C327.994344,672.209862 326.794677,665.445378 326.505018,662.693625 C326.464131,662.294309 326.675945,661.911696 327.036058,661.734373 L327.036058,661.734373 Z M340.501785,663.827637 C345.565306,663.833224 349.668707,667.936625 349.674294,673.000146 C349.674294,673.533392 349.242013,673.965673 348.708767,673.965673 C348.175521,673.965673 347.74324,673.533392 347.74324,673.000146 C347.738717,669.002676 344.499255,665.763214 340.501785,665.758691 C339.968539,665.758691 339.536258,665.32641 339.536258,664.793164 C339.536258,664.259918 339.968539,663.827637 340.501785,663.827637 Z M340.501785,659 C348.230323,659.008514 354.493417,665.271608 354.501931,673.000146 C354.501931,673.25622 354.400206,673.501805 354.219135,673.682877 C354.038063,673.863948 353.792478,673.965673 353.536404,673.965673 C353.003158,673.965673 352.570876,673.533392 352.570876,673.000146 C352.563427,666.337659 347.164272,660.938504 340.501785,660.931055 C339.968539,660.931055 339.536258,660.498773 339.536258,659.965527 C339.536258,659.432281 339.968539,659 340.501785,659 Z" id="phone"></path>
        </g>
    </g>
</svg>