<?xml version="1.0" standalone="no"?>
<!DOCTYPE svg PUBLIC "-//W3C//DTD SVG 20010904//EN"
 "http://www.w3.org/TR/2001/REC-SVG-20010904/DTD/svg10.dtd">
<svg version="1.0" xmlns="http://www.w3.org/2000/svg"
 width="2326.000000pt" height="2326.000000pt" viewBox="0 0 2326.000000 2326.000000"
 preserveAspectRatio="xMidYMid meet">
<metadata>
Created by potrace 1.14, written by Peter Selinger 2001-2017
</metadata>
<g transform="translate(0.000000,2326.000000) scale(0.100000,-0.100000)"
fill="#000000" stroke="none">
<path d="M14283 21230 c-1 -1108 -2 -2021 -2 -2027 -1 -10 -396 -13 -1940 -13
l-1940 0 2 -1687 2 -1688 1265 2 c696 1 1565 3 1932 3 367 1 670 0 675 -3 4
-3 8 -802 7 -1776 l-1 -1771 1689 0 1688 0 0 1778 0 1777 1836 2 c1009 1 1838
4 1842 7 3 4 7 131 8 284 2 152 5 556 8 897 3 341 8 940 12 1330 3 391 7 740
7 778 l2 67 -1857 0 -1858 0 -2 2028 -3 2027 -1686 0 -1686 0 0 -2015z"/>
<path d="M1888 17895 c-1 0 -2 -4024 -3 -8942 l-2 -8943 1714 0 1713 0 1 3378
c0 1857 2 3429 4 3492 6 241 17 461 30 615 2 33 7 96 10 140 4 44 8 91 10 105
2 14 6 54 10 90 3 36 10 92 15 125 5 33 12 80 15 105 5 38 37 235 50 305 13
75 51 233 77 323 16 59 31 114 33 123 11 55 118 317 180 444 129 260 269 459
460 650 106 106 285 251 370 299 17 9 53 31 80 48 191 119 515 249 765 307
247 57 432 76 725 76 212 -1 315 -8 445 -32 19 -3 46 -7 60 -9 62 -6 268 -64
384 -109 77 -29 263 -120 286 -140 8 -7 29 -20 47 -29 17 -8 37 -21 45 -28 7
-7 26 -21 41 -31 81 -52 346 -311 347 -339 0 -4 6 -13 13 -20 16 -16 76 -102
99 -143 95 -163 174 -366 202 -515 3 -14 10 -50 16 -80 6 -30 13 -73 15 -95 3
-22 7 -51 10 -64 2 -13 7 -49 10 -80 4 -31 8 -66 10 -79 2 -13 7 -53 10 -90 3
-37 8 -87 11 -112 2 -25 7 -83 10 -130 3 -47 7 -107 9 -135 3 -27 7 -111 11
-185 3 -74 7 -171 9 -215 15 -317 19 -1176 19 -4352 0 -2485 4 -3613 11 -3614
5 -1 776 -2 1712 -3 l1702 -1 -4 4210 c-2 2315 -5 4247 -8 4293 -3 46 -8 154
-12 240 -4 86 -8 180 -10 207 -10 157 -16 256 -20 300 -2 28 -7 86 -11 130 -3
44 -7 87 -9 95 -2 8 -6 49 -10 90 -4 41 -9 83 -10 92 -2 9 -6 44 -10 77 -3 33
-8 70 -10 82 -3 13 -7 41 -10 64 -4 22 -13 78 -22 125 -8 47 -16 92 -17 100
-15 96 -86 369 -135 515 -77 234 -190 491 -303 691 -142 253 -263 428 -417
607 -357 415 -952 800 -1603 1039 -174 63 -489 153 -638 182 -14 3 -50 10 -80
16 -30 6 -68 13 -85 16 -16 2 -55 9 -85 14 -76 13 -213 30 -285 36 -33 2 -73
7 -90 9 -162 25 -771 25 -1010 1 -65 -7 -161 -18 -185 -21 -51 -8 -276 -45
-300 -50 -14 -2 -49 -10 -77 -16 -29 -5 -56 -11 -60 -11 -5 -1 -48 -12 -98
-25 -49 -13 -98 -26 -108 -28 -67 -15 -318 -97 -427 -139 -474 -180 -921 -438
-1350 -780 -69 -55 -127 -102 -130 -105 -3 -3 -36 -33 -75 -66 -81 -70 -110
-97 -265 -250 -131 -129 -190 -190 -313 -327 l-87 -97 0 3287 0 3287 -1710 0
c-940 0 -1711 0 -1712 0z"/>
</g>
</svg>
